<svg width="43" height="39" viewBox="0 0 43 39" fill="none" xmlns="http://www.w3.org/2000/svg">
<path fill-rule="evenodd" clip-rule="evenodd" d="M13.0459 32.971C12.6408 32.8933 12.2403 32.8002 11.8443 32.6918C10.4568 32.3082 9.16218 31.7622 7.96058 31.0539C6.75898 30.3456 5.66467 29.4898 4.67764 28.4864C3.70492 27.483 2.8681 26.3689 2.16717 25.1442C1.48054 23.9194 0.944112 22.5914 0.557884 21.16C0.185961 19.714 0 18.2089 0 16.6447C0 15.0806 0.185961 13.5829 0.557884 12.1515C0.944112 10.7054 1.48054 9.37003 2.16717 8.14529C2.8681 6.90579 3.70492 5.78434 4.67764 4.78093C5.66467 3.77753 6.75898 2.92168 7.96058 2.21339C9.16218 1.50511 10.4568 0.959137 11.8443 0.575482C13.2462 0.191828 14.7053 0 16.2216 0C17.6806 0 19.104 0.177072 20.4915 0.531215C21.8934 0.885358 23.1951 1.42395 24.3967 2.14699C25.5983 2.85528 26.664 3.75539 27.5938 4.84733C28.2374 5.58159 28.7879 6.40497 29.2453 7.31749C29.8103 7.40258 30.3685 7.51619 30.9197 7.65834C32.2929 8.01249 33.5803 8.52157 34.7819 9.18559C35.9978 9.83485 37.1065 10.6317 38.1078 11.576C39.1234 12.5204 39.9889 13.5829 40.7041 14.7633C41.4336 15.9291 41.9987 17.2128 42.3992 18.6146C42.7997 20.0017 43 21.4699 43 23.0193C43 24.5687 42.7997 26.0443 42.3992 27.4461C41.9987 28.8331 41.4336 30.1169 40.7041 31.2974C39.9889 32.4779 39.1306 33.5477 38.1292 34.5068C37.1279 35.4512 36.0193 36.2554 34.8034 36.9194C33.6018 37.5834 32.3072 38.0999 30.9197 38.4688C29.5464 38.8229 28.1302 39 26.6712 39H13.0459V32.971ZM24.6865 7.12713C24.2804 6.53704 23.8119 6.02058 23.2809 5.57775C22.6229 5.00227 21.8719 4.55959 21.0279 4.24972C20.184 3.92509 19.2613 3.76277 18.26 3.76277C17.1871 3.76277 16.2001 3.94722 15.2989 4.31612C14.412 4.67026 13.6109 5.16459 12.8957 5.79909C12.1948 6.4336 11.5797 7.1714 11.0504 8.01249C10.5211 8.85358 10.0777 9.75369 9.72006 10.7128C9.36244 11.6572 9.0978 12.6385 8.92615 13.6566C8.75449 14.6748 8.66866 15.6708 8.66866 16.6447C8.66866 18.1941 8.84032 19.7361 9.18363 21.2707C9.54125 22.8053 10.0991 24.185 10.8573 25.4098C11.4544 26.3564 12.1839 27.1665 13.0459 27.8398V7.12713H24.6865ZM21.5644 32.3973C22.5126 32.0833 23.4138 31.6797 24.268 31.1867C25.4839 30.4932 26.5639 29.6226 27.508 28.5749C28.4521 27.5125 29.1959 26.2804 29.7395 24.8785L26.0274 23.3513C25.727 24.2219 25.3265 25.0335 24.8258 25.786C24.3252 26.5386 23.7387 27.1952 23.0664 27.756C22.6045 28.1392 22.1038 28.4679 21.5644 28.7421V10.1373H23.8174C25.6627 10.1373 27.2433 10.4841 28.5594 11.1776C29.8897 11.8712 30.984 12.8082 31.8423 13.9886C32.7006 15.1691 33.33 16.5414 33.7305 18.1056C34.1454 19.6549 34.3528 21.2928 34.3528 23.0193C34.3528 24.731 34.1454 26.3615 33.7305 27.9109C33.3157 29.4603 32.672 30.8326 31.7994 32.0278C30.9411 33.2083 29.8468 34.1527 28.5165 34.861C27.2004 35.5545 25.6341 35.9012 23.8174 35.9012H21.5644V32.3973Z" fill="#FFA500"/>
</svg>
